<svg xmlns="http://www.w3.org/2000/svg" viewBox="0 0 512 512" role="img" aria-label="MuzikBox">
  <defs>
    <linearGradient id="bg" x1="0%" y1="0%" x2="100%" y2="100%">
      <stop offset="0%" stop-color="#6d28d9"/>
      <stop offset="100%" stop-color="#3b82f6"/>
    </linearGradient>
    <filter id="shadow" x="-20%" y="-20%" width="140%" height="140%">
      <feDropShadow dx="0" dy="18" stdDeviation="18" flood-color="#000000" flood-opacity=".35"/>
    </filter>
  </defs>
  <rect width="512" height="512" rx="104" fill="#07071a"/>
  <rect x="32" y="32" width="448" height="448" rx="88" fill="url(#bg)"/>
  <path filter="url(#shadow)" fill="#ffffff" d="M338 112v218c0 49-40 82-91 82-44 0-77-24-77-58 0-35 36-62 79-62 17 0 32 4 45 11V168l-132 28v149c0 49-40 82-91 82-44 0-77-24-77-58 0-35 36-62 79-62 17 0 32 4 45 11V162l220-50z"/>
</svg>
